<?xml version="1.0" encoding="utf-8"?>
<!-- Generator: Adobe Illustrator 26.0.3, SVG Export Plug-In . SVG Version: 6.00 Build 0)  -->
<svg version="1.1" id="Layer_1" xmlns="http://www.w3.org/2000/svg" xmlns:xlink="http://www.w3.org/1999/xlink" x="0px" y="0px"
	 viewBox="0 0 24 24" style="enable-background:new 0 0 24 24;" xml:space="preserve">
<style type="text/css">
	.st0{fill:none;}
	.st1{fill:#6F6F7C;}
</style>
<path class="st0" d="M0,0h24v24H0V0z"/>
<g>
	<path class="st1" d="M16.5,5c2,0,3.5,1.5,3.5,3.5c0,2.8-3.3,5.8-8,10l0,0l-0.1-0.1C7,14.2,4,11.3,4,8.5C4,6.5,5.5,5,7.5,5
		c1.1,0,2.2,0.5,3,1.4L12,8.2l1.5-1.8C14.3,5.5,15.4,5,16.5,5 M16.5,3c-1.7,0-3.4,0.8-4.5,2.1C10.9,3.8,9.2,3,7.5,3
		C4.4,3,2,5.4,2,8.5c0,3.8,3.4,6.9,8.6,11.5l1.4,1.3l1.4-1.3c5.2-4.7,8.6-7.8,8.6-11.5C22,5.4,19.6,3,16.5,3L16.5,3z"/>
</g>
</svg>
